<?xml version="1.0" encoding="UTF-8"?>
<svg id="Layer_2" data-name="Layer 2" xmlns="http://www.w3.org/2000/svg" xmlns:xlink="http://www.w3.org/1999/xlink" viewBox="0 0 258.38 254.81">
  <defs>
    <style>
      .cls-1 {
        fill: url(#linear-gradient-2);
      }

      .cls-2 {
        fill: #fff;
      }

      .cls-3 {
        fill: url(#linear-gradient);
      }
    </style>
    <linearGradient id="linear-gradient" x1="16.53" y1="14.36" x2="241.73" y2="240.32" gradientUnits="userSpaceOnUse">
      <stop offset="0" stop-color="#3279c0"/>
      <stop offset="1" stop-color="#184c86"/>
    </linearGradient>
    <linearGradient id="linear-gradient-2" x1="83.65" y1="40.1" x2="181.88" y2="182.08" gradientUnits="userSpaceOnUse">
      <stop offset="0" stop-color="#a6cfee"/>
      <stop offset="1" stop-color="#689cd6"/>
    </linearGradient>
  </defs>
  <g id="Layer_1-2" data-name="Layer 1">
    <rect class="cls-3" x="0" width="258.38" height="254.81" rx="55.4" ry="55.4"/>
    <path class="cls-1" d="M132.05,27.52l76.7,21.82c5.21,1.48,8.78,6.28,8.72,11.69l-.86,67.97c-.19,15.15-4.61,29.95-12.77,42.73h0c-8.09,12.68-18.94,23.37-31.73,31.28l-37.12,22.94c-3.83,2.37-8.67,2.39-12.52.06l-37.17-22.5c-14.38-8.7-26.33-20.89-34.75-35.44h0c-6.31-10.9-9.63-23.27-9.63-35.86V61.04c0-5.34,3.53-10.04,8.66-11.53l75.86-21.98c2.16-.63,4.46-.63,6.62-.02Z"/>
    <path class="cls-2" d="M89.73,122.84h0c6.9,0,12.5,5.6,12.5,12.5v31.89h-25v-31.9c0-6.9,5.6-12.5,12.5-12.5Z"/>
    <path class="cls-2" d="M129.19,99.21h0c6.9,0,12.5,5.6,12.5,12.5v55.53h-25v-55.53c0-6.9,5.6-12.5,12.5-12.5Z"/>
    <path class="cls-2" d="M167.86,67.94h0c6.9,0,12.5,5.6,12.5,12.5v86.8h-25v-86.8c0-6.9,5.6-12.5,12.5-12.5Z"/>
  </g>
</svg>